<svg width="1056" height="495" viewBox="0 0 1056 495" fill="none" xmlns="http://www.w3.org/2000/svg">
<path d="M205.85 166.448L348.294 23.9768C380.257 -7.99228 432.024 -7.99228 463.813 23.9768C495.776 55.9459 495.776 107.722 463.813 139.517L399.018 204.324C384.948 218.398 384.948 240.985 399.018 255.058C413.089 269.131 435.672 269.131 449.742 255.058L463.813 240.985C492.649 212.143 539.378 212.143 568.214 240.985C597.051 269.826 597.051 316.564 568.214 345.405L510.368 403.263C504.114 409.517 504.114 419.595 510.368 425.849C516.622 432.104 526.697 432.104 532.951 425.849L674.006 284.768C698.846 259.923 739.322 259.923 764.162 284.768C789.003 309.614 789.003 350.097 764.162 374.942L726.119 413.166C720.734 418.552 720.734 427.413 726.119 432.973C731.505 438.359 740.364 438.359 745.923 432.973L749.049 429.846C815.755 363.127 924.152 363.127 990.858 429.846L1056 495H0C0 495 218.531 179.131 205.85 166.448Z" fill="#F8F2EC"/>
<path d="M348 455L523 279" stroke="white" stroke-width="3" stroke-miterlimit="10" stroke-linecap="round"/>
<path d="M483 465C492.389 465 500 457.389 500 448C500 438.611 492.389 431 483 431C473.611 431 466 438.611 466 448C466 457.389 473.611 465 483 465Z" fill="white"/>
</svg>
